<svg width="261" height="60" viewBox="0 0 261 60" fill="none" xmlns="http://www.w3.org/2000/svg">
<rect opacity="0.1" x="60" y="60" width="60" height="60" rx="30" transform="rotate(-180 60 60)" fill="#FD5B4F"/>
<path d="M27.9882 39.1925C28.3787 39.583 29.0119 39.583 29.4024 39.1925C29.7929 38.8019 29.7929 38.1688 29.4024 37.7782L22.6237 30.9995L39.791 30.9995C40.3433 30.9995 40.791 30.5518 40.791 29.9995C40.791 29.4472 40.3433 28.9995 39.791 28.9995L22.6248 28.9995L29.4024 22.2219C29.7929 21.8314 29.7929 21.1982 29.4024 20.8077C29.0119 20.4172 28.3787 20.4172 27.9882 20.8077L19.5296 29.2663C19.3328 29.4489 19.2096 29.7098 19.2096 29.9995C19.2096 30.1884 19.262 30.3651 19.353 30.5158C19.3941 30.584 19.4441 30.6483 19.5029 30.7072L27.9882 39.1925Z" fill="#FD5B4F"/>
<path d="M119.477 36L119.493 25.648L119.637 24.8H121.029L121.013 36H119.477ZM117.013 27.856V26.432C117.248 26.4427 117.52 26.368 117.829 26.208C118.149 26.048 118.469 25.84 118.789 25.584C119.109 25.328 119.392 25.0613 119.637 24.784L120.613 25.84C120.251 26.224 119.872 26.5707 119.477 26.88C119.083 27.1893 118.677 27.4347 118.261 27.616C117.856 27.7973 117.44 27.8773 117.013 27.856ZM123.013 37.344L127.429 24.048H128.949L124.565 37.344H123.013ZM132.555 36L132.571 25.648L132.715 24.8H134.107L134.091 36H132.555ZM130.091 27.856V26.432C130.326 26.4427 130.598 26.368 130.907 26.208C131.227 26.048 131.547 25.84 131.867 25.584C132.187 25.328 132.47 25.0613 132.715 24.784L133.691 25.84C133.329 26.224 132.95 26.5707 132.555 26.88C132.161 27.1893 131.755 27.4347 131.339 27.616C130.934 27.7973 130.518 27.8773 130.091 27.856ZM138.3 35.296L136.748 34.736C136.748 34.4053 136.822 34.064 136.972 33.712C137.132 33.3493 137.356 32.992 137.644 32.64C137.942 32.288 138.294 31.9627 138.7 31.664L140.86 30.064C141.116 29.8827 141.345 29.6747 141.548 29.44C141.761 29.1947 141.926 28.944 142.044 28.688C142.172 28.4213 142.236 28.16 142.236 27.904C142.236 27.5627 142.15 27.2533 141.98 26.976C141.809 26.688 141.569 26.464 141.26 26.304C140.95 26.1333 140.582 26.048 140.156 26.048C139.75 26.048 139.393 26.128 139.084 26.288C138.785 26.4373 138.534 26.64 138.332 26.896C138.129 27.152 137.985 27.424 137.9 27.712L136.284 27.408C136.401 26.9173 136.63 26.4587 136.972 26.032C137.313 25.6053 137.75 25.264 138.284 25.008C138.817 24.7413 139.42 24.608 140.092 24.608C140.86 24.608 141.521 24.752 142.076 25.04C142.641 25.3173 143.078 25.7067 143.388 26.208C143.697 26.6987 143.852 27.264 143.852 27.904C143.852 28.5227 143.681 29.0933 143.34 29.616C143.009 30.1387 142.529 30.6453 141.9 31.136L139.9 32.64C139.59 32.864 139.313 33.1093 139.068 33.376C138.822 33.6427 138.63 33.936 138.492 34.256C138.364 34.5653 138.3 34.912 138.3 35.296ZM136.748 36V34.736L137.932 34.592H143.996V36H136.748Z" fill="#F5F5F5"/>
<rect opacity="0.1" x="201" width="60" height="60" rx="30" fill="#FD5B4F"/>
<path d="M233.012 20.8075C232.621 20.417 231.988 20.417 231.598 20.8075C231.207 21.1981 231.207 21.8312 231.598 22.2218L238.376 29.0005H221.209C220.657 29.0005 220.209 29.4482 220.209 30.0005C220.209 30.5528 220.657 31.0005 221.209 31.0005H238.375L231.598 37.7781C231.207 38.1686 231.207 38.8018 231.598 39.1923C231.988 39.5828 232.621 39.5828 233.012 39.1923L241.47 30.7337C241.667 30.5511 241.79 30.2902 241.79 30.0005C241.79 29.8116 241.738 29.6349 241.647 29.4842C241.606 29.416 241.556 29.3517 241.497 29.2928L233.012 20.8075Z" fill="#FD5B4F"/>
</svg>
