<svg width="192" height="100" viewBox="0 0 192 100" fill="none" xmlns="http://www.w3.org/2000/svg">
<rect x="0.5" y="0.5" width="191" height="99" rx="4.5" stroke="#9747FF" stroke-dasharray="10 5"/>
<rect opacity="0.1" x="20" y="20" width="60" height="60" rx="30" fill="#FD5B4F"/>
<path d="M52.0118 40.8075C51.6213 40.417 50.9881 40.417 50.5976 40.8075C50.2071 41.1981 50.2071 41.8312 50.5976 42.2218L57.3763 49.0005H40.209C39.6567 49.0005 39.209 49.4482 39.209 50.0005C39.209 50.5528 39.6567 51.0005 40.209 51.0005H57.3752L50.5976 57.7781C50.2071 58.1686 50.2071 58.8018 50.5976 59.1923C50.9881 59.5828 51.6213 59.5828 52.0118 59.1923L60.4704 50.7337C60.6672 50.5511 60.7904 50.2902 60.7904 50.0005C60.7904 49.8116 60.738 49.6349 60.647 49.4842C60.6059 49.416 60.5559 49.3517 60.4971 49.2928L52.0118 40.8075Z" fill="#FD5B4F"/>
<rect opacity="0.2" x="112" y="20" width="60" height="60" rx="30" fill="#FD5B4F"/>
<path d="M144.012 40.8075C143.621 40.417 142.988 40.417 142.598 40.8075C142.207 41.1981 142.207 41.8312 142.598 42.2218L149.376 49.0005H132.209C131.657 49.0005 131.209 49.4482 131.209 50.0005C131.209 50.5528 131.657 51.0005 132.209 51.0005H149.375L142.598 57.7781C142.207 58.1686 142.207 58.8018 142.598 59.1923C142.988 59.5828 143.621 59.5828 144.012 59.1923L152.47 50.7337C152.667 50.5511 152.79 50.2902 152.79 50.0005C152.79 49.8116 152.738 49.6349 152.647 49.4842C152.606 49.416 152.556 49.3517 152.497 49.2928L144.012 40.8075Z" fill="#FD5B4F"/>
</svg>
