<svg width="228" height="72" viewBox="0 0 228 72" fill="none" xmlns="http://www.w3.org/2000/svg">
<rect x="0.5" y="0.5" width="227" height="71" rx="4.5" stroke="#9747FF" stroke-dasharray="10 5"/>
<mask id="mask0_4_4285" style="mask-type:alpha" maskUnits="userSpaceOnUse" x="24" y="24" width="24" height="24">
<rect x="24" y="24" width="24" height="24" fill="#D9D9D9"/>
</mask>
<g mask="url(#mask0_4_4285)">
<path d="M36 44.675C35.7667 44.675 35.5292 44.6333 35.2875 44.55C35.0458 44.4667 34.8333 44.3333 34.65 44.15L32.925 42.575C31.1583 40.9583 29.5625 39.3542 28.1375 37.7625C26.7125 36.1708 26 34.4167 26 32.5C26 30.9333 26.525 29.625 27.575 28.575C28.625 27.525 29.9333 27 31.5 27C32.3833 27 33.2167 27.1875 34 27.5625C34.7833 27.9375 35.45 28.45 36 29.1C36.55 28.45 37.2167 27.9375 38 27.5625C38.7833 27.1875 39.6167 27 40.5 27C42.0667 27 43.375 27.525 44.425 28.575C45.475 29.625 46 30.9333 46 32.5C46 34.4167 45.2917 36.175 43.875 37.775C42.4583 39.375 40.85 40.9833 39.05 42.6L37.35 44.15C37.1667 44.3333 36.9542 44.4667 36.7125 44.55C36.4708 44.6333 36.2333 44.675 36 44.675ZM35.05 31.1C34.5667 30.4167 34.05 29.8958 33.5 29.5375C32.95 29.1792 32.2833 29 31.5 29C30.5 29 29.6667 29.3333 29 30C28.3333 30.6667 28 31.5 28 32.5C28 33.3667 28.3083 34.2875 28.925 35.2625C29.5417 36.2375 30.2792 37.1833 31.1375 38.1C31.9958 39.0167 32.8792 39.875 33.7875 40.675C34.6958 41.475 35.4333 42.1333 36 42.65C36.5667 42.1333 37.3042 41.475 38.2125 40.675C39.1208 39.875 40.0042 39.0167 40.8625 38.1C41.7208 37.1833 42.4583 36.2375 43.075 35.2625C43.6917 34.2875 44 33.3667 44 32.5C44 31.5 43.6667 30.6667 43 30C42.3333 29.3333 41.5 29 40.5 29C39.7167 29 39.05 29.1792 38.5 29.5375C37.95 29.8958 37.4333 30.4167 36.95 31.1C36.8333 31.2667 36.6917 31.3917 36.525 31.475C36.3583 31.5583 36.1833 31.6 36 31.6C35.8167 31.6 35.6417 31.5583 35.475 31.475C35.3083 31.3917 35.1667 31.2667 35.05 31.1Z" fill="white"/>
</g>
<rect x="72" y="20" width="32" height="32" rx="16" fill="#124658"/>
<mask id="mask1_4_4285" style="mask-type:alpha" maskUnits="userSpaceOnUse" x="76" y="24" width="24" height="24">
<rect x="76" y="24" width="24" height="24" fill="#D9D9D9"/>
</mask>
<g mask="url(#mask1_4_4285)">
<path d="M88 44.675C87.7667 44.675 87.5292 44.6333 87.2875 44.55C87.0458 44.4667 86.8333 44.3333 86.65 44.15L84.925 42.575C83.1583 40.9583 81.5625 39.3542 80.1375 37.7625C78.7125 36.1708 78 34.4167 78 32.5C78 30.9333 78.525 29.625 79.575 28.575C80.625 27.525 81.9333 27 83.5 27C84.3833 27 85.2167 27.1875 86 27.5625C86.7833 27.9375 87.45 28.45 88 29.1C88.55 28.45 89.2167 27.9375 90 27.5625C90.7833 27.1875 91.6167 27 92.5 27C94.0667 27 95.375 27.525 96.425 28.575C97.475 29.625 98 30.9333 98 32.5C98 34.4167 97.2917 36.175 95.875 37.775C94.4583 39.375 92.85 40.9833 91.05 42.6L89.35 44.15C89.1667 44.3333 88.9542 44.4667 88.7125 44.55C88.4708 44.6333 88.2333 44.675 88 44.675ZM87.05 31.1C86.5667 30.4167 86.05 29.8958 85.5 29.5375C84.95 29.1792 84.2833 29 83.5 29C82.5 29 81.6667 29.3333 81 30C80.3333 30.6667 80 31.5 80 32.5C80 33.3667 80.3083 34.2875 80.925 35.2625C81.5417 36.2375 82.2792 37.1833 83.1375 38.1C83.9958 39.0167 84.8792 39.875 85.7875 40.675C86.6958 41.475 87.4333 42.1333 88 42.65C88.5667 42.1333 89.3042 41.475 90.2125 40.675C91.1208 39.875 92.0042 39.0167 92.8625 38.1C93.7208 37.1833 94.4583 36.2375 95.075 35.2625C95.6917 34.2875 96 33.3667 96 32.5C96 31.5 95.6667 30.6667 95 30C94.3333 29.3333 93.5 29 92.5 29C91.7167 29 91.05 29.1792 90.5 29.5375C89.95 29.8958 89.4333 30.4167 88.95 31.1C88.8333 31.2667 88.6917 31.3917 88.525 31.475C88.3583 31.5583 88.1833 31.6 88 31.6C87.8167 31.6 87.6417 31.5583 87.475 31.475C87.3083 31.3917 87.1667 31.2667 87.05 31.1Z" fill="white"/>
</g>
<rect x="124" y="20" width="32" height="32" rx="16" fill="#124658"/>
<mask id="mask2_4_4285" style="mask-type:alpha" maskUnits="userSpaceOnUse" x="128" y="24" width="24" height="24">
<rect x="128" y="24" width="24" height="24" fill="#D9D9D9"/>
</mask>
<g mask="url(#mask2_4_4285)">
<path d="M140 44.675C139.767 44.675 139.529 44.6333 139.288 44.55C139.046 44.4667 138.833 44.3333 138.65 44.15L136.925 42.575C135.158 40.9583 133.562 39.3542 132.138 37.7625C130.712 36.1708 130 34.4167 130 32.5C130 30.9333 130.525 29.625 131.575 28.575C132.625 27.525 133.933 27 135.5 27C136.383 27 137.217 27.1875 138 27.5625C138.783 27.9375 139.45 28.45 140 29.1C140.55 28.45 141.217 27.9375 142 27.5625C142.783 27.1875 143.617 27 144.5 27C146.067 27 147.375 27.525 148.425 28.575C149.475 29.625 150 30.9333 150 32.5C150 34.4167 149.292 36.175 147.875 37.775C146.458 39.375 144.85 40.9833 143.05 42.6L141.35 44.15C141.167 44.3333 140.954 44.4667 140.713 44.55C140.471 44.6333 140.233 44.675 140 44.675ZM139.05 31.1C138.567 30.4167 138.05 29.8958 137.5 29.5375C136.95 29.1792 136.283 29 135.5 29C134.5 29 133.667 29.3333 133 30C132.333 30.6667 132 31.5 132 32.5C132 33.3667 132.308 34.2875 132.925 35.2625C133.542 36.2375 134.279 37.1833 135.138 38.1C135.996 39.0167 136.879 39.875 137.787 40.675C138.696 41.475 139.433 42.1333 140 42.65C140.567 42.1333 141.304 41.475 142.213 40.675C143.121 39.875 144.004 39.0167 144.863 38.1C145.721 37.1833 146.458 36.2375 147.075 35.2625C147.692 34.2875 148 33.3667 148 32.5C148 31.5 147.667 30.6667 147 30C146.333 29.3333 145.5 29 144.5 29C143.717 29 143.05 29.1792 142.5 29.5375C141.95 29.8958 141.433 30.4167 140.95 31.1C140.833 31.2667 140.692 31.3917 140.525 31.475C140.358 31.5583 140.183 31.6 140 31.6C139.817 31.6 139.642 31.5583 139.475 31.475C139.308 31.3917 139.167 31.2667 139.05 31.1Z" fill="#FD5B4F"/>
</g>
<rect x="176" y="20" width="32" height="32" rx="16" fill="#0D3240"/>
<mask id="mask3_4_4285" style="mask-type:alpha" maskUnits="userSpaceOnUse" x="180" y="24" width="24" height="24">
<rect x="180" y="24" width="24" height="24" fill="#D9D9D9"/>
</mask>
<g mask="url(#mask3_4_4285)">
<path d="M192 44.675C191.767 44.675 191.529 44.6333 191.288 44.55C191.046 44.4667 190.833 44.3333 190.65 44.15L188.925 42.575C187.158 40.9583 185.562 39.3542 184.138 37.7625C182.712 36.1708 182 34.4167 182 32.5C182 30.9333 182.525 29.625 183.575 28.575C184.625 27.525 185.933 27 187.5 27C188.383 27 189.217 27.1875 190 27.5625C190.783 27.9375 191.45 28.45 192 29.1C192.55 28.45 193.217 27.9375 194 27.5625C194.783 27.1875 195.617 27 196.5 27C198.067 27 199.375 27.525 200.425 28.575C201.475 29.625 202 30.9333 202 32.5C202 34.4167 201.292 36.175 199.875 37.775C198.458 39.375 196.85 40.9833 195.05 42.6L193.35 44.15C193.167 44.3333 192.954 44.4667 192.713 44.55C192.471 44.6333 192.233 44.675 192 44.675ZM191.05 31.1C190.567 30.4167 190.05 29.8958 189.5 29.5375C188.95 29.1792 188.283 29 187.5 29C186.5 29 185.667 29.3333 185 30C184.333 30.6667 184 31.5 184 32.5C184 33.3667 184.308 34.2875 184.925 35.2625C185.542 36.2375 186.279 37.1833 187.138 38.1C187.996 39.0167 188.879 39.875 189.787 40.675C190.696 41.475 191.433 42.1333 192 42.65C192.567 42.1333 193.304 41.475 194.213 40.675C195.121 39.875 196.004 39.0167 196.863 38.1C197.721 37.1833 198.458 36.2375 199.075 35.2625C199.692 34.2875 200 33.3667 200 32.5C200 31.5 199.667 30.6667 199 30C198.333 29.3333 197.5 29 196.5 29C195.717 29 195.05 29.1792 194.5 29.5375C193.95 29.8958 193.433 30.4167 192.95 31.1C192.833 31.2667 192.692 31.3917 192.525 31.475C192.358 31.5583 192.183 31.6 192 31.6C191.817 31.6 191.642 31.5583 191.475 31.475C191.308 31.3917 191.167 31.2667 191.05 31.1Z" fill="#FD5B4F"/>
</g>
</svg>
